<svg width="250" height="250" viewBox="0 0 250 250" fill="none" xmlns="http://www.w3.org/2000/svg">
<rect width="250" height="250" rx="64" fill="#9B51E0"/>
<path d="M212.555 203.286C212.218 202.884 182.417 168.16 153.649 120.095C123.296 69.3879 117.25 39.5518 117.191 39.2745C116.156 33.8654 110.856 30.1548 105.439 31.1665C104.563 31.3317 103.775 31.6405 103.014 31.9993L35 57.6096C35 57.6096 42.1654 80.1798 63.7048 114.682C85.2686 149.184 109.336 172.7 109.336 172.7L145.236 144.465C172.674 187.469 196.137 214.843 197.482 216.379C200.695 220.11 206.055 220.856 210.139 218.417C210.626 218.117 211.1 217.771 211.558 217.383C215.717 213.767 216.177 207.452 212.555 203.291L212.555 203.286ZM102.949 65.2658C99.3684 67.4069 94.7287 66.2476 92.5837 62.6683C90.4467 59.0863 91.6073 54.44 95.1947 52.303C98.7753 50.1552 103.423 51.3212 105.568 54.9032C107.705 58.4866 106.53 63.1205 102.949 65.2658Z" fill="white"/>
</svg>
